<?xml version="1.0" encoding="UTF-8" standalone="no"?>
<!-- Created with Inkscape (http://www.inkscape.org/) -->

<svg
   xmlns:dc="http://purl.org/dc/elements/1.1/"
   xmlns:cc="http://creativecommons.org/ns#"
   xmlns:rdf="http://www.w3.org/1999/02/22-rdf-syntax-ns#"
   xmlns:svg="http://www.w3.org/2000/svg"
   xmlns="http://www.w3.org/2000/svg"
   xmlns:sodipodi="http://sodipodi.sourceforge.net/DTD/sodipodi-0.dtd"
   xmlns:inkscape="http://www.inkscape.org/namespaces/inkscape"
   width="487.48001mm"
   height="186.35699mm"
   viewBox="0 0 487.48001 186.35699"
   version="1.1"
   id="svg3999"
   inkscape:version="0.92.2 (30a58d1, 2017-08-07)"
   sodipodi:docname="logo-2.svg">
  <defs
     id="defs3993" />
  <sodipodi:namedview
     id="base"
     pagecolor="#ffffff"
     bordercolor="#666666"
     borderopacity="1.0"
     inkscape:pageopacity="0.0"
     inkscape:pageshadow="2"
     inkscape:zoom="0.98994949"
     inkscape:cx="980.13205"
     inkscape:cy="361.95144"
     inkscape:document-units="mm"
     inkscape:current-layer="g233"
     showgrid="false"
     inkscape:window-width="1920"
     inkscape:window-height="993"
     inkscape:window-x="0"
     inkscape:window-y="24"
     inkscape:window-maximized="1"
     inkscape:pagecheckerboard="true" />
  <metadata
     id="metadata3996">
    <rdf:RDF>
      <cc:Work
         rdf:about="">
        <dc:format>image/svg+xml</dc:format>
        <dc:type
           rdf:resource="http://purl.org/dc/dcmitype/StillImage" />
        <dc:title></dc:title>
      </cc:Work>
    </rdf:RDF>
  </metadata>
  <g
     inkscape:label="Layer 1"
     inkscape:groupmode="layer"
     id="layer1"
     transform="translate(0,-110.64296)">
    <g
       transform="matrix(0.2645797,-0.00138534,0.00138534,0.2645797,-8.3647986,43.648677)"
       id="g233">
      <path
         inkscape:connector-curvature="0"
         class="st0"
         d="m 381.1,680.5 c -2.1,0.6 -4.1,1.8 -6,2.9 -3.8,2.4 -7.7,4.6 -11.5,7.1 -6.3,4.2 -12.9,7.8 -19.8,11.1 -10.1,4.9 -20.4,9.5 -30.8,13.7 -33.6,13.7 -74.7,24.1 -111.2,21.7 -4.5,-0.3 -9,-0.2 -13.5,-0.6 -6.3,-0.6 -12.7,-0.8 -18.8,-2.4 -3.2,-0.8 -6.3,-1.7 -9.4,-2.6 -7.4,-2.3 -15,-4.2 -22.2,-7 -2.9,-1.1 -5.7,-2.3 -8.5,-3.5 -2.6,-1.1 -5.2,-2.3 -8,-3.2 -3.9,-1.2 -7.5,-3.2 -10.9,-5.5 -8.4,-5.8 -16.7,-11.9 -24.3,-18.7 -4.1,-3.7 -7.8,-7.8 -11.4,-12 -5.9,-7.1 -11.2,-14.6 -15.8,-22.6 -1.1,-1.9 -2.1,-4 -3,-6 -3.3,-7.3 -6.5,-14.6 -8.7,-22.3 -1.1,-3.9 -1.8,-8 -2.3,-12 -1.3,-11.6 -1,-23.3 0.8,-34.8 1.4,-8.9 3.6,-17.6 6.9,-26 2.4,-6.1 5.8,-11.7 9.6,-17.1 3.1,-4.3 6.4,-8.5 10.2,-12.3 26.5,-27.1 65.5,-33.3 101,-23.2 11.6,3.3 19,8.6 26.7,17.6 0.7,0.8 1.2,1.7 1.8,2.5 2.9,4.3 4.6,9.1 6.2,14 1.3,3.8 1.2,7.6 -0.1,11.5 -1,3.2 -2.6,6 -4.8,8.5 -2.7,3 -5.9,5.1 -9.8,6 -6,1.4 -12,2.2 -18.2,1 -9.9,-1.8 -17.6,-7.5 -24.6,-14.3 -6.6,-6.5 -13,-14.5 -22.6,-16.5 -7.8,-1.6 -15.8,1.5 -22.4,5.9 -16.6,11 -26.6,31.5 -29.3,50.8 -0.6,4.1 -1.3,8.1 -1.8,12.1 -0.5,4.7 0,9.4 1.3,14 1.9,6.9 3.8,13.8 6.6,20.4 5.4,12.8 13.2,23.9 23.4,33.4 11.1,10.3 23.6,18.2 37.1,24.8 4.9,2.4 10.2,4.2 15.5,5.7 4.5,1.2 9.1,2.5 13.7,3.5 6.2,1.3 12.5,1.7 18.9,2.1 3.7,0.2 7.4,0.3 11,0.7 5.5,0.7 11,0.8 16.5,0.3 5.1,-0.4 10.2,-0.8 15.3,-0.9 11.7,-0.3 23.2,-2.4 34.6,-5 1.4,-0.3 2.8,-0.6 4.2,-0.9 4.8,-1 9.6,-2.1 14.2,-3.8 6.9,-2.5 13.9,-4.8 20.8,-7.4 15.8,-6.2 31,-13.8 45.8,-22.1 1.2,-0.7 2.5,-1.5 3,-3 -0.6,-1.6 -1.7,-2.8 -3,-3.8 -1.5,-1.4 -3.1,-2.7 -4.6,-4.1 -1,-1 -1.7,-2.3 -2.8,-3.2 -3.1,-2.7 -5.1,-6.3 -8.1,-9.1 -3,-2.8 -5.6,-6 -8.3,-9 C 321.2,627.2 313.3,617 307,605.7 303.8,600 300.5,594.3 297.4,588.5 288.7,572.2 282,555.1 278,537 c -0.9,-4 -1.9,-8 -2.8,-11.9 -1.1,-4.4 -1.7,-8.8 -1.9,-13.4 -0.2,-4.7 -0.4,-9.4 -0.8,-14.1 -0.4,-5.1 -0.2,-10.2 0.5,-15.3 1.3,-8.7 2.6,-17.4 4,-26.1 0.6,-3.6 1.5,-7.2 2.6,-10.7 2.2,-7.4 4.6,-14.8 7,-22.2 0.6,-1.7 1.2,-3.5 2,-5.1 1.7,-3.7 3.6,-7.3 5.4,-11 2.5,-5.4 5.4,-10.5 8.6,-15.5 3.9,-6 7.8,-12 11.9,-17.9 3.8,-5.6 8.5,-10.5 13.1,-15.4 3.7,-4.1 7.5,-8.1 11,-12.3 5.8,-7 12.3,-13.1 19.5,-18.6 8.4,-6.5 17.1,-12.7 26.1,-18.4 10.3,-6.4 21,-11.8 32,-16.9 30.2,-13.9 62.6,-23.4 95.6,-27.8 36.5,-4.9 74.7,-1.4 111.5,-1.2 41.9,0.3 83.7,0.5 125.6,0.8 230.7,0 461.4,3.2 692.1,4.2 3.5,0 137.8,-5.6 198.8,5.5 57.6,10.5 113,36.8 153.3,79.9 16.4,17.5 30.6,37.2 40.9,58.9 25.7,53.6 24.6,122.1 -2,175.3 -25.6,51.1 -71.5,93.7 -123.3,117.9 -0.3,0.1 -0.6,0.3 -0.9,0.4 -9.3,4.3 -18.9,7.8 -28.6,11.1 -15.5,5.2 -31.4,9.3 -47.3,13 -6,1.4 -12,2.4 -18.1,3.2 -62.8,9 -126.3,5.1 -189.4,3.3 -13.3,-0.4 -19.9,5.4 -30.7,12.2 -7.3,4.5 -14.6,9.1 -22.6,12.4 -15.9,6.5 -32.3,13.3 -49.1,17.1 -58.2,13.1 -124.1,5.2 -178.7,-18.3 -11.5,-4.9 -22.8,-10.2 -33.9,-15.7 -4.7,-2.3 -9.9,-6.3 -14.9,-7.4 -6,-1.2 -13.8,0.1 -20,0.2 -13.7,0.1 -27.4,0.2 -41.1,0.2 -73,0.2 -145.9,-0.4 -218.9,-1.5 -73,-1.1 -146,-0.4 -218.9,-1 -10,-0.1 -19.9,0.1 -29.9,0 -8.2,-0.1 -16.4,-0.1 -24.5,-0.6 -5.7,-0.4 -11.4,-0.8 -17.1,-1.8 -3.4,-0.6 -6.9,-0.9 -10.3,-1.4 -12.4,-1.6 -24.5,-4.8 -36.5,-8.1 -16.2,-4.4 -31.9,-10.2 -47.5,-16.5 -6.1,-2.5 -12.1,-4.9 -18,-7.9 -6.9,-3.6 -13.4,-7.9 -20.1,-11.9 -0.4,-0.2 -0.7,-0.4 -1,-0.7 -2.6,-3 -6,-4.3 -9.6,-5.5 z M 1437.7,714 c 1.1,2.2 6.9,2 9.8,2.2 20.3,1.9 41.3,0.5 61.7,0.6 10.6,0 21.3,-0.1 31.9,-0.7 11,-0.6 22.1,-0.8 33.1,-1.2 9.8,-0.3 19.6,-1.1 29.3,-2.8 7.9,-1.3 15.7,-2.7 23.5,-4.5 7.8,-1.8 15.5,-3.7 23.3,-5.5 9.8,-2.2 19.3,-5.3 28.6,-9.1 14.6,-6 28.6,-13.2 42.1,-21.4 4.4,-2.6 8.8,-5.3 13,-8.2 8.1,-5.5 15.8,-11.6 23.3,-18 4.8,-4.1 9.4,-8.5 13.7,-13.1 6.1,-6.6 12,-13.4 17.4,-20.6 31.9,-42.7 46.7,-97 33.9,-149.3 -9,-37.1 -29,-71.4 -54.4,-99.7 -12.8,-14.2 -27.9,-24.6 -44.1,-34.6 -50.8,-31.3 -107,-40.1 -165.8,-41.7 -13.9,-0.4 -27.9,-0.5 -41.8,-0.6 -62.3,-0.7 -124.7,-0.3 -187,-1.1 -12.2,-0.2 -24.5,-0.3 -36.7,-0.2 -30.7,0 -61.3,-0.4 -92,-0.8 -29.1,-0.4 -58.3,-0.7 -87.4,-0.5 -27.3,0.2 -54.6,0.5 -81.9,0.3 -28.3,-0.2 -56.5,-0.5 -84.8,-0.7 C 859.3,282 770,280 682,280.2 c -83.3,0.1 -176.1,-9.1 -253.2,28.1 -2.1,1 -4.1,2 -6.2,3.1 -38.7,19.5 -71.9,46 -96.4,82.1 -15.4,22.7 -26.9,48.6 -30.9,75.7 -3.9,26.8 -1.3,54.2 7.2,79.9 5.9,17.9 14.6,34.8 25.4,50.3 3.5,5 7,10.1 10.5,15.1 5.1,7.4 11.3,14 17.9,20.2 0.6,0.6 1.2,1.1 1.9,1.5 3,1.4 5.3,3.8 7.6,6.1 3.5,3.5 7.5,6.3 11.4,9.3 0.7,0.5 1.6,0.5 2.3,0 1.2,-0.8 2.4,-1.6 3.6,-2.4 12.6,-9.1 24.5,-19.1 35.9,-29.7 2.2,-2.1 4.4,-4.3 6.4,-6.7 5.2,-6 10.2,-12.3 15.5,-18.2 8.7,-9.8 16.7,-20.2 24.7,-30.6 6,-7.8 11.9,-15.6 17.9,-23.4 5.5,-7.1 11.2,-14.1 16.7,-21.2 8.5,-10.8 16.9,-21.6 25.4,-32.3 8.4,-10.5 17,-21 25.6,-31.4 5.2,-6.3 10.5,-12.5 15.7,-18.9 5.2,-6.4 10.6,-12.5 16.3,-18.4 2.4,-2.5 4.8,-5 7.1,-7.6 6.7,-7.4 13.4,-14.9 20.1,-22.4 2.9,-3.2 5.8,-6.3 9.1,-9.2 1.2,-1.1 2.4,-2.2 3.5,-3.4 8.8,-9.4 17.4,-19.7 26.6,-29 9.4,-9.5 19.9,-19.9 33.6,-22.4 4.2,-0.8 21.6,-3.2 22.3,3.1 0.5,4.3 0,8.6 -0.3,12.9 -0.5,8.6 -1.1,17.1 -1.7,25.7 -0.2,3.5 -0.3,7 -0.5,10.4 -0.3,4.1 -0.7,8.1 -1,12.2 -0.5,8.6 -1.7,17.1 -2.9,25.6 -0.8,5.5 -1.6,10.9 -1.9,16.4 -0.4,6.7 -0.9,13.5 -1.4,20.2 -0.4,6.1 -0.9,12.2 -1.4,18.4 -0.5,6.7 -1.1,13.5 -1.7,20.2 -0.8,9 -1.6,17.9 -2.4,26.9 -0.6,6.3 -1.1,12.6 -1.7,19 -0.9,11.6 -1.7,23.3 -2.8,34.9 -1,11 -1.9,22 -2.3,33 -0.1,1.6 -0.1,3.3 -0.3,4.9 -0.6,4.1 -0.6,8.2 -0.7,12.2 -0.1,1.6 0,3.3 0.2,4.9 0.4,5.3 2.5,9.9 6.1,13.7 3.8,4.1 8.2,7.4 13.1,10 2.9,1.6 6,2.4 9.4,2.6 3.7,0.2 7.3,0.8 11,1.2 1.5,0.2 2.9,0.8 3.6,2.1 1.4,2.3 2.2,4.8 1.4,7.6 -0.5,1.7 -1.7,2.9 -3.5,3.1 -2,0.3 -4.1,0.4 -6.1,0.4 -5.1,0 -10.2,-0.1 -15.3,-0.1 -13.1,-0.1 -26.2,-0.1 -39.3,-0.1 -2.9,0 -5.7,-0.2 -8.6,-0.3 -1.6,-0.1 -3.3,-0.2 -4.9,-0.2 -11.3,0 -22.5,0 -33.8,0 -6.1,0 -12.3,0 -18.4,-0.1 -2,0 -4.1,-0.1 -6.1,-0.2 -3.3,-0.2 -4.7,-1.8 -4.4,-5.2 0.1,-1.4 0.3,-2.9 0.5,-4.3 1.2,-7.2 -0.1,-5.3 6.2,-7.2 2.5,-0.8 5.2,-1.1 7.7,-1.9 3.5,-1.1 7.4,-1.1 10.6,-3 3.2,-1.9 6,-4.3 9,-6.4 5.6,-4.1 8.7,-9.5 9.9,-16.3 2.1,-12.5 4.2,-25 5.2,-37.7 0.4,-4.7 1,-9.4 1.6,-14 0.9,-7.9 1.9,-15.8 2.7,-23.8 0.3,-2.4 0.2,-4.9 0.3,-7.4 0,-1.1 -0.7,-1.9 -1.8,-2.2 -1,-0.2 -2,-0.5 -3,-0.6 -6.3,-0.8 -12.6,-1.2 -19,-1.3 -13.3,-0.2 -26.6,-0.2 -39.9,-0.2 -9.4,0 -18.8,0.1 -28.2,0 -5.5,-0.1 -11,0.2 -16.6,-0.3 -2,-0.2 -4.1,0.1 -6.1,0.2 -3,0.3 -5.4,1.7 -7.4,3.9 -0.7,0.8 -1.2,1.6 -1.9,2.4 -3.8,5.1 -7.5,10.3 -11.3,15.3 -13.1,17.3 -26.1,34.6 -39.3,51.9 -5.3,7 -11.1,13.7 -17.5,19.8 -4.3,4.1 -8.5,8.3 -12.8,12.3 -9.4,8.9 -19,17.4 -29.5,25 -0.7,0.5 -1.2,1.1 -1.9,1.6 0.3,0.6 0.5,1.3 1,1.6 5.7,4.3 11.3,8.8 18,11.7 0.7,0.3 1.4,0.8 2.1,1.2 10.4,5.8 21.2,10.6 32.4,14.5 11.2,4 22.7,7 34.2,9.7 10.2,2.4 20.4,4.4 30.7,5.9 12.2,1.7 24.5,2.1 36.7,2.5 8.8,0.3 17.6,0.2 26.4,0.2 26.8,0.1 53.6,-0.2 80.4,0.3 6.1,0.1 12.3,0 18.4,0 16.6,0 33.2,0 49.7,0.1 4.5,0 9,-0.2 13.5,0.1 8,0.7 16,0.3 23.9,0.5 3.5,0.1 7,0 10.4,0 4.1,-0.1 8.2,-0.3 12.3,-0.2 7.4,0 14.7,-0.3 22.1,0.3 0.6,0.1 1.2,0 1.8,0 10.4,0 20.9,0 31.3,0.1 12.5,0 25,0.1 37.5,0.2 17.8,0.1 35.6,-0.3 53.4,0.3 5.7,0.2 11.5,0.1 17.2,0.2 2.7,0 5.3,0.3 8,0.3 8.4,0.1 16.8,0.3 25.2,0.3 18.4,-0.1 36.8,0.3 55.3,-0.2 3.3,-0.1 6.5,0.2 9.8,0.3 1.4,0 2.9,0 4.3,-0.1 0.3,0 0.7,-0.3 1,-0.6 0.3,-0.3 0.2,-0.7 -0.2,-1 -2.3,-2 -4.6,-4 -7,-5.9 -6.6,-5.2 -13.3,-10.2 -19.4,-16.1 -5.6,-5.4 -11.1,-10.9 -16.8,-16.2 C 960,621.9 931.1,550.4 888.1,486 c -3.5,-5.3 -6.8,-10.7 -10.1,-16.1 -7.4,-12 -14.7,-24.1 -22.2,-36.1 -5.1,-8.2 -10.4,-16.2 -15.5,-24.3 -8.6,-13.9 -17.1,-27.9 -25.6,-41.9 -1.5,-2.4 -3,-4.9 -4.5,-7.3 -0.4,-0.7 -1,-1.2 -1.6,-1.9 -0.3,-0.4 -1.4,-0.2 -1.6,0.2 -0.3,1.2 -0.8,2.3 -0.9,3.5 -0.3,3.5 -0.5,6.9 -0.5,10.4 -0.1,9.2 -0.2,18.4 -0.3,27.6 0,4.7 0,9.4 -0.1,14.1 -0.1,6.7 -0.3,13.5 -0.4,20.2 0,1.4 0,2.9 -0.1,4.3 -0.1,2.4 -0.4,4.9 -0.4,7.3 -0.2,17.8 -0.2,35.6 -0.4,53.4 0,4.3 -0.4,8.6 -0.5,12.9 -0.2,11 -0.3,22.1 -0.4,33.1 0,7 0.1,13.9 0.1,20.9 0,2.3 0,4.5 0,6.8 -0.1,6.8 -0.2,13.5 -0.3,20.2 -0.1,4.9 -0.4,9.8 -0.7,14.7 -0.3,4.5 0.1,9 0.4,13.5 0.2,2.3 0.8,4.5 1.8,6.5 2.8,5.7 6.6,10.8 11.5,15 0.6,0.5 1.3,1 2,1.4 3.5,1.6 7.1,3.1 10.7,4.6 2.3,0.9 4.7,1.3 7.2,1.4 0.8,0 1.7,-0.1 2.4,0.2 1.8,0.5 3.3,1.4 4.2,3.3 1.7,3.6 1.1,7.2 -0.1,10.7 -0.2,0.5 -0.8,1 -1.3,1.2 -1.2,0.3 -2.4,0.5 -3.6,0.6 -5.5,0.2 -11,0.4 -16.6,0.5 -9,0.1 -18,0 -27,-0.3 -9.2,-0.3 -18.4,-0.3 -27.6,-0.4 -7.6,-0.1 -15.1,0 -22.7,-0.1 -2,0 -4.1,-0.1 -6.1,-0.3 -2.2,-0.2 -3.9,-1.9 -4.1,-3.9 -0.2,-2 -0.2,-4.1 -0.2,-6.1 0,-1.1 0.6,-2 1.5,-2.5 1,-0.6 2.1,-1.2 3.3,-1.6 2.1,-0.7 4.3,-1.3 6.5,-1.9 3.4,-0.9 6.5,-2.4 9.5,-4.1 6.8,-3.8 11.8,-9.3 15,-16.5 1.6,-3.6 2.8,-7.2 3.5,-11.1 0.7,-4.2 1.4,-8.5 1.8,-12.8 1,-9 1.3,-17.9 1.1,-27 -0.1,-5.9 -0.4,-11.9 -0.4,-17.8 0.1,-16.6 0.2,-33.2 0.4,-49.7 0,-2.2 0.2,-4.5 0.4,-6.7 0.1,-1.2 0.2,-2.4 0.2,-3.7 0.2,-9 0.4,-18 0.6,-27 0.1,-4.5 0.3,-9 -0.1,-13.5 -0.2,-2.6 -0.3,-5.3 0,-8 0.6,-5.1 0.5,-10.2 0.7,-15.3 0.3,-14.3 0.3,-28.7 0.3,-43 0.1,-9.2 0.1,-18.4 0.1,-27.6 0,-2.2 -0.1,-4.5 -0.2,-6.7 -0.1,-1.9 -0.6,-3.6 -1.3,-5.3 -1.8,-4.1 -4.7,-7.2 -8.4,-9.5 -6.6,-4.1 -13.8,-6 -21.6,-6.1 -1.6,0 -3.3,-0.1 -4.9,-0.2 -0.9,-0.1 -1.5,-0.7 -1.8,-1.5 -0.3,-0.9 -0.7,-2 -0.7,-3 0.1,-1.6 0.4,-3.3 0.7,-4.9 0.5,-2.3 2.2,-3.9 4.7,-4.1 1.4,-0.1 2.9,-0.2 4.3,-0.2 4.9,0 9.8,0.1 14.7,0.2 7.8,0 15.6,0.1 23.3,0.1 9.8,0 19.7,-0.1 29.5,-0.1 8,0 16,0.1 23.9,0.2 2.7,0 4.7,1.1 6.2,3.3 0.6,0.8 1.1,1.7 1.7,2.6 4.3,7.2 8.7,14.4 13,21.5 5.4,8.9 10.8,17.8 16.3,26.7 0.6,1 1.4,2 2,3.1 5.2,9.8 11.2,19 17,28.4 3.9,6.3 7.8,12.5 11.6,18.8 5.5,9.1 10.9,18.3 16.3,27.4 7.7,13 15.4,26.1 23.1,39.1 3.9,6.7 8,13.3 12.4,19.7 3.1,4.6 6.1,9.2 8.8,14 4.7,8.4 9.4,16.8 15.1,24.6 0.6,0.8 1.1,1.7 1.6,2.6 2.8,4.8 5.6,9.5 8.4,14.3 0.8,1.4 1.7,2.8 3,3.8 0.3,0.3 1.6,0 1.6,-0.4 0.2,-1.4 0.6,-2.8 0.6,-4.2 0.1,-6.1 0.2,-12.3 0.1,-18.4 -0.1,-6.3 0.6,-12.7 0.5,-19 0,-8.6 0.3,-17.2 0.4,-25.8 0.2,-12.1 0.4,-24.1 0.6,-36.2 0.1,-6.7 0,-13.5 0.3,-20.2 0.3,-7.6 0.4,-15.1 0.1,-22.7 -0.2,-6.1 -0.4,-12.3 -0.4,-18.4 0.1,-5.3 0.5,-10.6 0.8,-15.9 0.3,-6.3 0.8,-12.7 -0.2,-19 -1.2,-7.8 -4,-15 -9.5,-20.9 -3.3,-3.5 -7.1,-6.2 -11.3,-8.4 -2.9,-1.5 -5.8,-3.1 -8.8,-4.3 -4.1,-1.7 -5.4,-4.7 -4.8,-8.8 0,-0.2 0,-0.4 0.1,-0.6 0.4,-3.6 2.6,-6.1 6.2,-6.7 1.8,-0.3 3.7,-0.4 5.5,-0.4 5.5,0 11,0.2 16.6,0.2 19.6,0 39.3,0.1 58.9,0.1 2.3,0 4.5,0 6.8,0.1 1.4,0.1 2.9,0.4 4.2,0.8 2.6,0.9 4.8,4.1 4.5,6.7 -0.6,5.2 -1.8,7 -6.8,8 -0.4,0.1 -0.8,0.1 -1.2,0.2 -9.3,1.4 -16.8,6.1 -23.3,12.6 -4,4 -6.4,8.9 -7.4,14.5 -0.8,4.9 -1,9.8 -1.1,14.7 -0.2,11.7 -0.2,23.3 -0.3,35 0,4.1 0.1,8.2 0,12.3 -0.2,12.7 -0.6,25.4 -0.5,38.1 0.1,10 -0.6,20 -0.5,30 0.1,5.3 0.1,10.7 -0.1,16 -0.5,10.6 -0.2,21.3 -0.7,31.9 -0.5,10.6 -0.2,21.3 -0.4,31.9 -0.3,13.7 -0.1,27.4 -0.2,41.1 -0.1,5.3 1.8,9.6 5.5,13.2 3.9,3.9 7.4,8.2 10.9,12.5 4.7,5.7 9.5,11.3 14.7,16.5 4.9,4.9 10.2,9.4 15.4,14.1 10.4,9.2 21.1,17.9 32.5,25.9 5.2,3.6 10.5,7.5 16.1,10.5 5.8,3.2 12,3.2 18.5,3 38.5,-1.2 77.3,0.7 115.8,0.7 39.8,0.1 80.1,0.4 120.2,0.3 7.4,0 15.1,0.6 22.5,-0.1 6,-0.6 9.4,-4.8 13.8,-8.7 4.2,-3.7 8.1,-7.7 11.7,-12 4.2,-5 8.3,-10.1 12.5,-15.1 3.7,-4.4 7,-9 9.8,-14.2 -0.9,-0.5 -1.8,-1 -2.7,-1.4 -4.6,-2.2 -9.3,-4.2 -13.8,-6.6 -7.2,-3.9 -14.2,-8.2 -20.3,-13.7 -3.8,-3.4 -7.7,-6.8 -11.7,-9.9 -6.7,-5.2 -12.7,-10.9 -18.2,-17.3 -9.3,-11 -17,-23 -23.6,-35.8 -4.6,-8.7 -8.1,-17.9 -11,-27.3 -3.1,-10.2 -4.7,-20.7 -5.3,-31.4 -0.1,-1.8 -0.2,-3.7 -0.6,-5.5 -0.7,-4.3 -0.8,-8.6 -0.8,-12.9 0.1,-9.6 0.5,-19.2 1.4,-28.8 0.2,-1.8 0.4,-3.7 0.7,-5.5 1.3,-8.3 3.4,-16.4 5.6,-24.5 1.9,-6.9 4.5,-13.5 7.8,-20 5.1,-10 11,-19.6 17.6,-28.8 3.7,-5.2 7.4,-10.3 11.8,-14.9 3.6,-3.7 7.1,-7.4 10.8,-10.9 6.5,-6 13.1,-11.7 20.2,-17 7.8,-5.7 16.1,-10.6 25.1,-14 2.3,-0.9 4.6,-1.7 6.7,-2.9 4.1,-2.3 8.5,-4 13,-5.3 7.7,-2.1 15.4,-4.1 23.4,-4.5 2,-0.1 4.1,-0.3 6.1,-0.4 2,-0.1 4,0.3 6.1,0.3 4.9,0.1 9.8,0.3 14.7,0.9 5.9,0.7 11.7,1.8 17.5,3.1 13.3,3.1 25.7,8.1 37.3,15.3 12.4,7.7 23.7,16.8 33.9,27.2 4.2,4.2 8.1,8.7 11.5,13.5 6.4,9 12.3,18.4 17.6,28.1 56.6,103.4 -23.2,286.5 -158,256.5 -1.1,-0.2 -2,0.2 -2.7,1.1 -3.3,4.7 -6.8,9.2 -10.3,13.7 -4.2,5.3 -8.1,10.8 -12.1,16.3 -1.9,2.6 -3.8,5.3 -5.7,8 -0.8,2.2 -0.9,3.3 -0.6,4 z m 163.8,-226.1 c -2,-43.9 -17.2,-86.2 -45,-111.2 -44.5,-40.1 -112.7,-29.6 -142.7,21.8 -35.3,60.5 -37,153.2 7.5,209.5 8.5,10.7 28.3,29.7 41.9,31.3 4,-9.9 2.9,-22.2 -4.6,-30.4 -5.9,-6.6 -15,-10.2 -19.6,-17.7 -6.2,-10.1 -1.2,-24.8 9.3,-30.2 10.5,-5.4 24.4,-2.1 32.3,6.7 8.8,9.7 10.4,23.9 9.7,37 -0.6,11 -2.6,22 -6,32.5 -4.8,15.3 16.2,10.2 25.2,8.2 65.3,-14.8 95.1,-88.1 92,-157.5 z M 541.8,509.2 c 1,0.6 2.2,1 3.4,1 6.1,0.2 12.3,0.5 18.4,0.5 15.7,0.1 31.5,0 47.2,0 4.7,0 9.4,0.3 14.1,0.7 3.9,0.4 7.8,0.4 11.6,0.5 4.7,0.2 7.6,-3 8.3,-6.7 0.3,-1.6 0.5,-3.2 0.7,-4.8 0.3,-2.4 0.5,-4.9 0.8,-7.3 0.9,-7.3 1.8,-14.6 2.7,-21.9 0.3,-2.6 0.6,-5.3 1,-7.9 0.9,-7.7 1.9,-15.4 2.8,-23.1 1.1,-9.1 2.3,-18.2 3.4,-27.4 0.9,-7.9 1.8,-15.8 2.8,-23.8 0.2,-1.8 0.2,-3.7 -0.3,-5.5 -0.4,-1.3 -1.5,-1.9 -2.8,-1.5 -2.7,1 -4.9,2.8 -6.9,4.9 -7.1,7.6 -14.2,15.2 -21.4,22.7 -8.6,9 -17.4,17.8 -26,26.9 -5.2,5.5 -10.5,10.8 -15.3,16.7 -3.8,4.8 -7.9,9.3 -12.1,13.9 -9.7,10.6 -18.7,21.7 -27.7,32.8 -1.2,1.4 -2.2,2.9 -3.2,4.5 -0.9,1.5 -1.6,3 -1.5,4.8 z m 705.4,227.2 c 0,0 0,0 0,0 -8.6,0 -17.2,0 -25.8,0 -1.2,0 -2.5,0.1 -3.7,-0.1 -3.1,-0.5 -6.1,-0.3 -9.2,-0.3 -3.7,0 -7.4,0.1 -11,0 -5.9,-0.2 -11.8,0.4 -17.7,0.9 -0.6,0.1 -1.3,0.1 -1.8,0.3 -0.5,0.2 -0.9,0.7 -1.2,1.1 -0.1,0.1 0.4,0.7 0.7,0.9 2.6,1.1 5.2,2.4 7.9,3.3 14.5,5.1 29.2,9.2 44.4,11.7 9.5,1.5 19.1,2.4 28.6,3 13.5,0.8 27,0 40.4,-1.4 13,-1.4 25.8,-4 38.3,-8.1 6.4,-2.1 12.7,-4.5 18.8,-7.4 0.7,-0.3 1.4,-0.8 2,-1.4 0.2,-0.1 0.1,-0.9 -0.1,-1 -0.5,-0.4 -1,-0.7 -1.6,-0.8 -3.2,-0.4 -6.5,-0.7 -9.8,-0.9 -2.2,-0.2 -4.5,-0.1 -6.7,-0.2 -2.7,-0.1 -5.3,-0.3 -8,-0.3 -5.7,-0.1 -11.4,-0.1 -17.2,-0.1 -2.2,0 -4.5,-0.1 -6.7,0.2 -3.9,0.5 -7.8,0.3 -11.6,0.4 -3.5,0.1 -7,-0.1 -10.4,-0.1 -6.9,0.1 -13.9,0.2 -20.8,0.3 -5.9,0 -11.9,0 -17.8,0 z"
         id="path207"
         style="fill:#ffffff" />
      <path
         inkscape:connector-curvature="0"
         class="st1"
         d="m 612.1,866.8 c 0.1,1.7 0.2,2.4 0.2,3 -0.2,12.8 2.4,25.2 5.2,37.6 0.9,3.8 2.2,7.5 3.9,11 2.9,6 7,11 12.6,14.7 4.6,3 9.6,4.7 15,4.7 5.3,0 10.6,-0.6 15.7,-2.5 5.8,-2.3 10.8,-5.7 14.4,-11 2.7,-3.9 4.7,-8.1 5.9,-12.7 1.4,-5.6 2.4,-11.2 2.1,-17 -0.2,-4.3 -1.2,-8.5 -3.3,-12.3 -2.2,-4 -5.5,-6.6 -10.1,-7.2 -2.8,-0.4 -5.7,-0.6 -8.5,-0.9 -1.7,-0.1 -3.2,-0.5 -4.7,-1.2 -1.2,-0.5 -1.9,-1.5 -2.4,-2.6 -0.4,-1.2 0.1,-2.7 1.1,-3.2 1.5,-0.7 3.1,-1.2 4.7,-1.2 5.1,0.1 10.2,0.2 15.3,0.3 1.6,0 3.3,0.3 4.9,0.3 8.6,0 17.2,0.1 25.8,0 2.9,0 5.7,-0.3 8.6,-0.3 6.3,-0.1 12.7,-0.1 19,-0.1 1.2,0 2.4,0.4 3.6,0.6 2,0.5 3,2 2.8,4.1 -0.2,1.7 -1.6,3.1 -3.2,3.2 -1.4,0.1 -2.9,0.1 -4.3,0.1 -4.8,-0.2 -8.6,2.2 -12.2,5 -0.6,0.5 -1,1.3 -1.4,2 -1,2 -1.4,4.3 -1.5,6.5 -0.4,5.1 -0.7,10.2 -0.9,15.3 -0.2,3.5 -0.3,6.9 -0.3,10.4 0.1,5.7 0.3,11.4 1.5,17.1 0.3,1.2 0.3,2.4 0.3,3.6 0,1.3 -1,2.5 -2.1,2.6 -1,0.2 -2,0.3 -3,0.3 -1.8,-0.1 -3.7,-0.1 -5.5,-0.4 -4.5,-0.7 -8.9,0 -13.4,0.9 -8.6,1.7 -17.2,3.8 -25.7,6 -6.6,1.7 -13.3,2.5 -20,2.8 -8.4,0.4 -16.7,-1 -24.8,-3.6 -6.8,-2.2 -13.4,-5.1 -19.5,-8.9 -10.1,-6.3 -18.2,-14.6 -23.9,-25 -2.6,-4.7 -4.3,-9.7 -5.8,-14.8 -1.9,-6.5 -3.1,-13.1 -3.2,-19.9 -0.1,-7.2 0.3,-14.3 2,-21.3 2.5,-10.4 6.7,-20.2 12.7,-29 3.9,-5.7 8.8,-10.7 14.4,-14.9 8.4,-6.2 17.7,-10.2 27.7,-12.7 3.4,-0.8 6.8,-1.4 10.3,-1.7 11.4,-1.1 17.5,-0.7 29.9,0.8 3.2,0.4 6.5,0.8 9.7,1.3 3.8,0.5 7.3,-0.4 10.5,-2.6 1.3,-0.9 2.6,-2 3.9,-3 0.7,-0.5 1.3,-0.9 2.1,-1.3 2.1,-1 4.9,-0.3 5.8,1.8 1.2,2.6 2.3,5.2 3.2,7.9 3.5,10 7,20.1 10.4,30.1 0.7,1.9 1.2,3.9 1.7,5.9 0.4,1.5 -0.3,3.4 -1.3,3.8 -1.4,0.7 -2.8,0.5 -4.1,-0.2 -0.7,-0.4 -1.4,-0.9 -1.9,-1.5 -1.1,-1.4 -2.3,-2.9 -3.2,-4.5 -3.1,-5.6 -7.3,-10.3 -12.3,-14.4 -6.1,-4.9 -12.5,-9.2 -19.6,-12.5 -2.2,-1 -4.5,-1.9 -6.9,-2.5 -8.3,-2.1 -16.6,-2.5 -24.9,-0.4 -8.8,2.2 -16.1,6.9 -21,14.8 -2.7,4.4 -5.1,8.9 -6.7,13.7 -3.2,9.5 -5.4,19.3 -5.2,29.4 0.2,2.4 0,4.6 -0.1,5.7 z"
         id="path209"
         style="fill:#ffffff" />
      <path
         inkscape:connector-curvature="0"
         class="st1"
         d="m 889.3,929.8 c -2.6,1 -4.7,3.1 -7,4.7 -2.4,1.6 -4.7,3.3 -7.1,4.8 -6.1,3.6 -12.8,5.3 -20,4.9 -5.8,-0.3 -11.3,-1.6 -16.3,-4.6 -7.2,-4.4 -11,-10.8 -11.6,-19.1 -0.3,-4 0.5,-7.7 1.8,-11.4 1.3,-3.8 3.8,-6.8 6.7,-9.4 5.2,-4.7 11.1,-8.4 17.8,-10.5 5.3,-1.7 10.7,-2.7 16.1,-3.7 5.2,-0.9 10.5,-1.7 15.7,-2.5 2.2,-0.3 2.8,-0.9 3,-3.1 0.2,-2.2 0.4,-4.5 0.1,-6.7 -0.3,-3 -0.8,-6.1 -1.5,-9.1 -1.6,-6.5 -8.9,-12.6 -17.7,-10.5 -3,0.7 -5.7,2.3 -7.5,5 -0.7,1 -1.1,2.2 -0.7,3.5 0.4,1.2 0.6,2.4 1.1,3.5 1,2.5 1,5.2 1.1,7.9 0,4.3 -2.8,10 -8.9,12 -5.3,1.7 -10.5,1.5 -15.6,-0.7 -3.4,-1.5 -5.4,-4.3 -6.6,-7.7 -0.8,-2.1 -1.2,-4.4 -0.6,-6.6 0.5,-2 0.7,-4.1 1.4,-5.9 1.3,-3.5 3.6,-6.4 6.7,-8.6 8.2,-5.8 17.3,-9.2 27.3,-9.9 10.7,-0.7 21.2,0.6 31.5,3.7 5.2,1.6 9.8,4.1 13.9,7.6 3.6,3.1 6,6.7 6.1,11.6 0,0.6 0.2,1.2 0.2,1.8 -0.1,3.9 0.2,7.8 0.3,11.6 0.2,8.4 0.2,16.8 0.2,25.1 0,4.3 0.1,8.6 1.4,12.8 0.5,1.5 1.1,3.1 1.9,4.5 0.5,0.8 1.4,1.5 2.3,2 1.6,0.9 4,0.4 5,-1 0.8,-1.2 1.3,-2.5 2.2,-3.7 0.6,-0.8 1.5,-1.4 2.3,-1.9 1.9,-0.9 4.5,0.5 4.6,2.6 0.3,5.3 -0.8,10.2 -5.7,13.4 -2,1.4 -4.1,2.7 -6.3,3.8 -5.2,2.5 -10.6,3 -16.1,1.8 -3,-0.6 -5.9,-1.5 -8.8,-2.5 -4,-1.3 -7.4,-3.4 -9.8,-6.9 -0.7,-1.2 -1.4,-2.2 -2.9,-2.6 z m 0.4,-29.2 c -0.1,-2.4 -0.2,-4.9 -0.4,-7.3 -0.1,-1.1 -1,-1.8 -2.1,-1.8 -7.9,0.4 -14.7,3.5 -20.5,8.7 -2,1.8 -3.6,3.9 -4.9,6.3 -2.4,4.3 -2.9,8.9 -1.4,13.6 0.7,2.3 2.1,4 4.1,5.2 5.7,3.4 13.5,2.7 18,-2.4 2.3,-2.6 4.1,-5.5 5.3,-8.9 1.5,-4.5 1.9,-8.9 1.9,-13.4 z"
         id="path211"
         style="fill:#ffffff" />
      <path
         inkscape:connector-curvature="0"
         class="st1"
         d="m 1340.4,857.2 c 4.8,1.3 18.7,-7.3 22.4,-8.7 6.8,-2.5 13.9,-3.1 21.1,-1.5 3.9,0.8 7.2,2.8 10.2,5.3 2.6,2.2 4,5.2 4.4,8.5 0.5,3.6 0.8,7.3 1,11 0.2,2.4 0.1,4.9 0.1,7.4 -0.3,10.6 0.2,21.3 0.1,31.9 0,3.1 0.1,6.1 0.3,9.2 0.1,1.4 0.4,2.8 0.6,4.2 0.3,2.2 1.6,3.7 3.4,4.9 0.9,0.5 1.8,1 2.7,1.4 0.9,0.4 1.9,0.8 2.8,1.3 9.6,5.4 4.6,9.5 -4,10 -13,0.8 -26.4,-0.4 -39.5,-0.6 -2.4,0 -5.3,-0.4 -6.3,-2.6 -1.1,-2.3 0.9,-5 3.1,-6.1 2.2,-1.2 4.9,-1.6 6.9,-3.2 3.2,-2.6 3.7,-7.2 3.9,-11.3 0.6,-13.1 0.6,-26.2 0.1,-39.2 -0.1,-3.7 -0.4,-7.7 -2.7,-10.7 -2.4,-3.2 -6.7,-4.4 -10.7,-4.2 -4,0.2 -7.8,1.8 -11.5,3.4 -3.2,1.3 -6.5,2.8 -8.4,5.7 -2.2,3.1 -2.2,7.2 -2.2,11 0.1,10.9 0.2,21.8 0.4,32.6 0,4.2 0.3,9 3.6,11.8 2.1,1.8 5.1,2.2 7.3,3.8 10.1,7.4 -10.2,7.5 -13.7,7.6 -8.3,0.2 -16.7,0.1 -25,-0.4 -0.6,0 -19.6,-1.4 -13.9,-6.2 0.8,-0.7 1.6,-1.2 2.7,-1.4 1.8,-0.4 3.6,-0.8 5.4,-1.2 1.8,-0.5 3.4,-1.4 4.8,-2.7 1.5,-1.4 2.6,-3.1 3.1,-5.2 0.9,-3.6 1,-7.3 0.6,-11 -0.2,-2 -0.2,-4.1 -0.2,-6.1 0,-5.1 -0.2,-10.2 -0.2,-15.3 0,-3.5 0.2,-6.9 0.2,-10.4 0,-1.8 -0.1,-3.7 -0.5,-5.5 -0.7,-3.5 -2.8,-5.8 -6.3,-6.8 -1.8,-0.5 -3.6,-0.8 -5.4,-0.9 -1,-0.1 -2,-0.4 -2.9,-0.8 -2.3,-0.9 -2.7,-4.1 -0.8,-5.5 0.2,-0.1 0.3,-0.3 0.5,-0.4 3,-1.7 6.3,-2.8 8.7,-5.5 2.9,-1.5 5.8,-3 8.7,-4.5 2.3,-1.3 4.6,-2.6 6.9,-4.1 3.6,-2.3 7.5,-4.1 11.5,-5.7 4.3,-1.7 3.3,8.9 3.8,11.5 0.4,1.8 0.8,3.7 2.2,4.9 0.1,0 0.4,0.2 0.7,0.3 z"
         id="path213"
         style="fill:#ffffff" />
      <path
         inkscape:connector-curvature="0"
         class="st1"
         d="m 1105.9,944.4 c -6,-0.4 -11.5,-0.8 -16.9,-2.1 -1.4,-0.3 -2.8,-0.5 -4.2,-0.6 -3.6,-0.4 -6.9,0.3 -10.1,2 -1.6,0.9 -3.2,1.8 -4.8,2.6 -1.2,0.6 -2.4,0.2 -3,-1.1 -1.2,-2.4 -2.4,-4.8 -3.3,-7.2 -1.5,-4 -2.7,-8.1 -4.1,-12.2 -1.7,-5.2 -3.1,-10.6 -5.2,-15.7 -0.5,-1.3 -1,-2.7 -0.8,-4.2 0.1,-1.4 0.8,-2.7 1.8,-3 1.4,-0.4 2.9,-0.4 4,0.6 0.6,0.5 1.2,1.2 1.6,1.8 0.8,1.2 1.4,2.5 2.1,3.7 4.8,8.2 11,15.3 18.8,20.8 7,4.9 14.9,7.4 23.6,7.3 3.4,-0.1 6.4,-1.2 9.3,-2.9 6.1,-3.6 7,-11.2 4.7,-16.2 -0.4,-0.9 -1.2,-1.7 -1.9,-2.3 -1.4,-1.2 -3,-2 -4.9,-2.5 -4.2,-1 -8.3,-2.3 -12.4,-3.3 -8.9,-2.2 -17.8,-4.6 -26.5,-7.6 -1.2,-0.4 -2.3,-0.8 -3.4,-1.3 -9.6,-4.3 -14,-12.1 -14.9,-22.2 -0.2,-2.1 0.3,-4.1 0.9,-6 1.1,-3.3 2.2,-6.6 3.6,-9.8 1.1,-2.6 2.9,-4.9 5.1,-6.8 5.7,-4.9 12.2,-8.1 19.6,-9.6 4.1,-0.8 8.1,-0.8 12.2,-0.3 3.5,0.4 6.9,1 10.3,1.6 2.6,0.4 5.2,0.8 7.9,0.7 2.3,-0.1 4.4,-0.6 6.3,-2 0.7,-0.5 1.3,-1.1 2,-1.5 0.9,-0.6 2,-0.5 2.9,0 1.8,1.1 3.2,2.6 3.8,4.6 1.1,3.3 2.2,6.6 3.2,9.9 1.2,3.9 2.2,7.9 3.3,11.8 0.3,1 0.5,2 0.6,3 0.3,2.4 -0.6,4.4 -2.6,5.8 -0.4,0.3 -1.4,0.2 -1.7,-0.2 -1.8,-2.5 -3.6,-5 -5.3,-7.5 -2.5,-3.5 -5.1,-6.9 -8.4,-9.7 -4.3,-3.7 -9.1,-6.1 -14.4,-8 -5.7,-2 -11.2,-1.3 -16.8,0.6 -5.9,2.1 -7.4,9.4 -4.8,13.7 1.9,3.1 4.4,5.3 7.8,6.5 6.1,2.3 12.4,4.1 18.8,5.6 2.4,0.6 4.8,0.9 7.2,1.4 5.7,1 11.1,2.9 16.1,5.6 7.4,4 11.4,10.3 12.5,18.6 0.2,1.6 0.3,3.3 0.3,4.9 0.1,6.6 -2,12.5 -6.3,17.5 -7.3,8.4 -16.4,13.4 -27.5,14.6 -2.1,0.5 -4.3,0.5 -6.1,0.6 z"
         id="path215"
         style="fill:#ffffff" />
      <path
         inkscape:connector-curvature="0"
         class="st1"
         d="m 999,943.6 c -5.5,-0.7 -11,-1.2 -16.4,-2 -5.1,-0.8 -9.8,-0.1 -14.1,2.8 -0.3,0.2 -0.7,0.4 -1,0.6 -1.8,1 -3.2,0.6 -4.3,-0.9 -1.6,-2.2 -2.8,-4.5 -3.7,-7 -3.1,-8.7 -5.7,-17.5 -8.2,-26.3 -0.4,-1.6 -0.6,-3.2 -0.7,-4.8 -0.1,-1.4 1.1,-3.1 2.1,-3.5 1.6,-0.6 3.3,-0.1 4.4,1.3 0.6,0.8 1.2,1.7 1.6,2.6 1.1,2.9 2.8,5.5 4.7,7.9 3.2,4.2 6.4,8.5 10.4,12 6.8,6.1 14.9,9.2 23.8,10.2 3.7,0.4 7.4,-0.4 10.9,-1.5 3.4,-1.1 6,-3.5 7.1,-7.1 0.4,-1.2 0.7,-2.3 0.9,-3.5 0.8,-4.3 -0.9,-7.6 -4.5,-9.9 -1.5,-1 -3.3,-1.6 -5.1,-2.1 -10,-2.8 -20.1,-5.5 -30.2,-8.3 -2.6,-0.7 -5.1,-1.4 -7.6,-2.2 -8.9,-3 -14.4,-9.3 -16.3,-18.3 -2.1,-9.6 0.3,-18.3 6.8,-25.7 3.1,-3.6 7.1,-6.1 11.4,-8.2 6.4,-3.1 13.3,-4.2 20.3,-3.6 4.9,0.4 9.7,1.2 14.6,1.9 1,0.1 2,0.4 3,0.5 3.1,0.3 6.1,-0.1 8.6,-2.4 0.7,-0.7 1.7,-1.1 2.6,-1.5 1.3,-0.6 3.1,-0.1 3.7,1.2 0.9,1.6 1.7,3.3 2.4,5 0.9,2.3 1.6,4.6 2.3,7 0.8,2.5 1.5,5.1 2.4,7.6 1.4,3.9 1.9,7.9 2.3,12 0.1,1.1 -0.5,1.8 -1.7,2.2 -2,0.7 -3.9,0.2 -4.9,-1.4 -0.6,-1 -1.2,-2.1 -1.8,-3.2 -4.1,-7.6 -10.3,-13.2 -17.6,-17.6 -5,-3 -10.6,-4.2 -16.5,-3.9 -2.1,0.1 -4.1,0.6 -6,1.3 -4.8,1.8 -7.5,7.7 -5.9,12.6 1,2.9 2.7,5 5.3,6.5 2.3,1.3 4.7,2.3 7.3,3 7.7,2 15.4,4 23.1,6.1 2.8,0.7 5.5,1.6 8.2,2.4 3.6,1.1 6.8,2.8 9.7,5.1 5.7,4.3 8.9,10.1 9.1,17.3 0.3,11.1 -3.8,20.4 -12.2,27.6 -2.5,2.1 -5.4,3.7 -8.5,4.9 -4,1.5 -8.1,2.8 -12.5,2.9 -2.8,0.1 -6,0.8 -9.3,0.4 z"
         id="path217"
         style="fill:#ffffff" />
      <path
         inkscape:connector-curvature="0"
         class="st1"
         d="m 800.4,839.1 c 0,6.5 0.1,14.3 0,22 -0.1,6.9 -0.7,13.9 -0.8,20.8 -0.3,12.1 -0.1,24.1 -0.1,36.2 0,1.9 0.7,3.6 1.4,5.3 0.8,2 2.2,3.5 4.2,4.3 2.3,0.9 4.6,1.7 6.9,2.5 1.2,0.4 2.4,0.6 3.5,1.1 0.9,0.4 1.7,1.2 2,2.2 0.2,0.5 0.2,1.3 0,1.7 -0.6,1.4 -1.8,2.2 -3.3,2.5 -1,0.2 -2,0.2 -3.1,0.2 -9.2,0 -18.4,0 -27.6,0 -7.6,0 -15.1,0.1 -22.7,0.1 -1.2,0 -2.5,-0.1 -3.7,-0.1 -2.2,-0.1 -3.9,-1 -5.5,-2.4 -0.5,-0.5 -0.6,-1.6 -0.2,-2.2 0.8,-1.3 2,-2 3.4,-2.5 2,-0.6 4,-0.9 6,-1.5 2.9,-0.8 5.2,-2.5 6.4,-5.2 0.5,-1.1 0.9,-2.3 1,-3.5 0.2,-2.4 0.2,-4.9 0.3,-7.4 0.1,-4.9 -0.1,-9.8 0.5,-14.7 0.4,-3.4 0.1,-6.9 0.1,-10.4 0,-2.7 -0.1,-5.3 0,-8 0.1,-3.7 0.4,-7.4 0.4,-11 0.1,-11 0.2,-22.1 0.3,-33.1 0,-4.1 -0.1,-8.2 -0.2,-12.3 -0.2,-7.1 -3.9,-11 -10.6,-12.1 -1.2,-0.2 -2.4,-0.2 -3.7,-0.4 -1.6,-0.3 -3.1,-0.9 -4.4,-2 -0.6,-0.6 -0.9,-1.3 -1,-2.2 -0.1,-1.2 0.8,-2.4 2.1,-2.7 4.2,-0.8 8.4,-1.8 12.6,-2.4 7.2,-1 13.9,-3.4 20.3,-6.6 2.6,-1.3 5.1,-2.6 7.7,-3.8 1.3,-0.6 2.7,-1 4,-1.4 1.1,-0.3 2.5,0.3 3.2,1.3 0.7,1 1.2,2.2 1.3,3.4 0.1,2 0.2,4.1 0,6.1 -0.9,9.6 -1,19.2 -1,28.8 0,2.8 0.2,5.5 0.3,9.4 z"
         id="path219"
         style="fill:#ffffff" />
      <path
         inkscape:connector-curvature="0"
         class="st1"
         d="m 1436,890.8 c 0.1,1.4 0.2,2.8 0.4,4.2 1.9,13.6 11.5,25.6 24.1,31.1 12.5,5.5 27.6,4.5 39.6,-2 3.6,-1.9 9.1,-6.8 13.4,-6.6 14.2,0.6 -0.4,11.1 -5.3,14.2 -11.5,7.5 -25.1,11.7 -38.8,11.7 -30.5,0.1 -62.8,-18.4 -59,-53.1 2.1,-19.4 20.3,-33.4 39,-39.2 11.7,-3.6 24.1,-4.9 36.2,-3.7 9.8,0.9 33,7.9 28.2,22.2 -0.6,1.9 -2,3.6 -3.5,4.9 -4.3,3.8 -10.7,5.4 -16,3.2 -5.5,-2.4 -8.6,-8.2 -10.9,-13.7 -0.8,-2 -1.7,-4.2 -3.3,-5.7 -2.1,-2 -5.2,-2.4 -8.1,-2.5 -21,-0.6 -36.8,14.1 -36,35 z"
         id="path221"
         style="fill:#ffffff" />
      <path
         inkscape:connector-curvature="0"
         class="st1"
         d="m 1270.3,887.8 c 0.1,10.4 0.2,20.9 0.3,31.3 0,0.6 0,1.2 0,1.8 0.1,4.8 2.6,8 6.7,10.2 2.7,1.5 11.5,2 11.4,6 -0.1,2.8 -3.8,3.6 -6.5,3.7 -16.7,0.2 -33.4,0.4 -50.1,0.5 -3.3,0 -16.4,-5.3 -7.5,-7 1.4,-0.3 2.8,-0.4 4.2,-0.7 1.8,-0.3 3.6,-0.8 5.3,-1.6 2.3,-1.2 3.9,-2.9 4.8,-5.3 0.5,-1.5 0.9,-3.2 1.1,-4.8 1.1,-8.7 1.8,-17.5 1.1,-26.3 -0.5,-6.3 -0.6,-12.6 -1.8,-18.9 -0.8,-4.3 -3.4,-6.9 -7.1,-8.5 -1.5,-0.7 -3.1,-1 -4.7,-1.3 -1.6,-0.3 -3.1,-0.9 -4.5,-1.9 -1.8,-1.3 -1.7,-4.1 0.3,-5.1 0.9,-0.5 1.8,-0.9 2.8,-1.1 3.4,-0.7 6.8,-1.4 10.3,-1.8 5.3,-0.6 10.5,-1.9 15.2,-4.4 2.9,-1.5 5.8,-3 8.7,-4.5 1.1,-0.6 2.2,-1.2 3.3,-1.6 0.9,-0.3 2,-0.4 3,-0.4 1.1,0 2.5,1 2.8,2.1 0.7,2.6 1.1,5.2 1.1,7.9 -0.1,10.6 -0.2,21.3 -0.3,31.9 0.1,-0.2 0.1,-0.2 0.1,-0.2 z"
         id="path223"
         style="fill:#ffffff" />
      <path
         inkscape:connector-curvature="0"
         class="st1"
         d="m 1236.7,825.2 c 0.3,-4.1 3.2,-9.5 9.9,-12.6 1.1,-0.5 2.3,-0.9 3.5,-1.1 2.8,-0.4 5.6,-1 8.5,-0.4 7.7,1.6 13.4,7.9 13.9,15.7 0.3,4.5 -1,8.5 -3.9,11.9 -2.5,3.1 -5.5,5.5 -9.3,6.6 -1,0.3 -2,0.6 -3,0.5 -4.7,-0.7 -9.2,-1.6 -13.1,-4.6 -4.8,-3.5 -6.6,-7 -6.5,-16 z"
         id="path225"
         style="fill:#ffffff" />
      <path
         inkscape:connector-curvature="0"
         class="st1"
         d="m 1135.8,958.4 c -0.5,-0.1 -0.9,-0.2 -1.3,-0.4 -1.8,-1.2 0.1,-4 2,-5.2 11.5,-7.8 21.7,-17.3 30.2,-28.3 0.8,-1.1 1.9,-2.2 3.2,-2 0.7,0.1 1.3,0.6 1.8,1 20.9,19.5 -19.6,37.1 -35.7,34.9 -0.1,0 -0.2,0 -0.2,0 z"
         id="path227"
         style="fill:#ffffff" />
      <path
         inkscape:connector-curvature="0"
         class="st1"
         d="m 1556,928 c -0.2,1 -0.1,2.7 -0.7,4.2 -1.6,4.1 -4.5,6.7 -9,7.3 -1.2,0.2 -2.4,0.2 -3.7,0.2 -5,0.1 -10,-3.2 -11.5,-9.1 -0.1,-0.4 -0.2,-0.8 -0.3,-1.2 -1.1,-3.5 0,-6.4 2.2,-9 0.9,-1.1 2.1,-2 3.1,-2.9 4.9,-4.3 14.1,-3.3 18.3,3 0.7,1 1,2.2 1.3,3.4 0.3,1 0.2,2.2 0.3,4.1 z"
         id="path229"
         style="fill:#ffffff" />
      <path
         inkscape:connector-curvature="0"
         class="st0"
         d="m 1208.8,670.6 c -9,0.1 -18.1,-0.6 -27,-2.1 -83,-14.1 -135.4,-96.5 -137.4,-176.4 -1.8,-75.4 46.8,-152.1 121.9,-171.4 19.3,-5 39.7,-5.6 59.3,-2 9.8,1.8 19.4,4.7 28.6,8.6 8.3,3.5 18,12.7 26.3,14.3 0.7,-1.1 1.1,-2.5 1,-3.9 -0.1,-2.3 0.3,-4.5 0.8,-6.7 0.6,-3.1 2.6,-5.1 5.6,-5.9 2.2,-0.6 4.4,-1.1 6.6,-1.5 2.2,-0.4 4.1,0.3 5.1,2.4 1.3,2.6 2.7,5.1 3.7,7.7 4.6,12.7 9,25.5 13.5,38.2 2.5,7.1 5.3,14.2 7.8,21.3 1.7,5 3.1,10.2 4.6,15.3 0.2,0.8 0.4,1.6 0.5,2.4 0.4,2.6 -0.9,4.9 -3.4,5.8 -2.7,1 -5.5,1.7 -8.2,2.5 -6.2,1.7 -15.2,-17.2 -18.3,-21.4 -6.8,-9.3 -14.3,-18.3 -23,-26 -25.3,-22.3 -61,-32 -94.2,-26.4 -34.1,5.8 -58.5,33.5 -70.4,64.7 -13.3,35 -16.8,73.3 -11.7,110.3 8.1,58.5 42.9,132.9 112.7,126.4 50,-4.7 87.1,-38 110.1,-80.7 2.5,-4.6 8.4,-2.4 11.8,-0.2 5.9,3.9 4.4,9.9 2.5,15.9 -17.7,56.7 -72.5,88.3 -128.8,88.8 z"
         id="path231"
         style="fill:#ffffff" />
      <path
         style="stroke-width:1.01015258;fill:#ffffff"
         d="m 1203.5027,522.93514 c -39.7355,-4.32818 -74.8911,-15.20702 -117.9826,-36.50954 l -16.4622,-8.1382 -281.02766,-0.23876 -281.0277,-0.23876 -17.67766,-2.64758 C 446.53049,468.75301 392.793,450.07448 366.7177,432.54546 c -8.01594,-5.38869 -11.93922,-7.52158 -13.83881,-7.52346 -0.87483,-8.6e-4 -7.92064,3.93423 -15.65736,8.74464 -40.02856,24.88833 -92.8502,43.51786 -135.79013,47.89145 -12.13695,1.2362 -40.23,0.65274 -52.58922,-1.09219 C 131.99075,478.18672 92.884676,464.4685 81.728323,457.02268 55.914803,439.79459 38.464434,420.44076 27.280098,396.63532 18.869069,378.73277 16.607544,369.11864 16.611033,351.2793 c 0.0057,-29.17137 6.753269,-50.90226 21.489488,-69.20807 19.320042,-24 47.621191,-36.1573 80.414459,-34.5436 13.25155,0.65209 27.99093,4.00603 36.45575,8.29547 6.52032,3.3041 15.42896,11.52824 18.89578,17.44393 1.39999,2.38891 3.42196,7.15975 4.49327,10.60185 2.56434,8.23924 1.35236,13.88792 -4.37609,20.39579 -5.14463,5.84461 -11.70952,7.98241 -22.93427,7.46834 -11.0837,-0.50761 -17.9615,-4.16817 -31.60435,-16.82075 -12.65642,-11.73773 -16.23985,-13.74749 -24.606004,-13.80023 -15.70657,-0.099 -33.705291,15.98588 -42.185827,37.70011 -3.463745,8.86885 -6.707143,25.91595 -6.753812,35.49762 -0.06381,13.10145 9.491508,37.7839 19.967963,51.57947 14.962876,19.70337 42.9198,37.56034 69.39902,44.32736 33.64247,8.59765 89.63483,5.6314 125.76399,-6.66249 26.92333,-9.16137 67.68022,-28.55551 67.68022,-32.20558 0,-0.62168 -3.52291,-4.73205 -7.82868,-9.13417 -27.83648,-28.45926 -41.14282,-47.03967 -56.37111,-78.71424 -12.16413,-25.30116 -19.10016,-51.69234 -20.17682,-76.7716 -0.57081,-13.29624 -0.33197,-17.24612 1.94986,-32.24585 6.87961,-45.22359 22.75331,-77.72546 56.64255,-115.977285 22.79874,-25.733658 44.33273,-41.961962 76.76637,-57.852168 52.15517,-25.552387 104.44725,-36.4734388 164.6854,-34.3940794 13.44853,0.4642297 425.54568,0.6392084 964.74721,0.4096369 53.5865,-0.022815 83.767,2.1083908 110.8577,7.8282645 53.4481,11.284895 102.3427,36.721904 137.5202,71.543808 30.5403,30.231503 51.5996,66.103033 60.0564,102.297233 4.965,21.24993 6.677,51.2748 4.1084,72.054 -6.122,49.52624 -28.9826,93.18027 -69.2842,132.30349 -38.2713,37.15206 -74.8343,56.37905 -138.3402,72.74734 -39.5506,10.19394 -91.7594,13.47626 -177.4286,11.15477 -40.0338,-1.08484 -45.7914,-1.0478 -50.5076,0.32498 -2.9276,0.85218 -11.687,5.51167 -19.4651,10.35444 -16.0896,10.01756 -24.5224,14.11935 -44.1471,21.47373 -29.9095,11.20859 -47.6805,14.33224 -84.1423,14.78991 -14.4452,0.18132 -30.1278,-0.0912 -34.8503,-0.60559 z m 77.2767,-28.05928 c 17.2798,-3.03833 30.9965,-7.05371 43.9423,-12.86342 6.5638,-2.94564 7.1763,-4.36437 2.4588,-5.69563 -3.3887,-0.95632 -171.6956,-0.18845 -175.6391,0.80132 -1.4228,0.35709 -2.5869,1.23884 -2.5869,1.95944 0,2.98755 35.2405,13.26115 55.1194,16.06891 16.9129,2.38882 17.5637,2.42015 42.3603,2.03966 17.1355,-0.26293 26.1499,-0.8693 34.3452,-2.31028 z m -246.9823,-39.01479 c 0,-0.70371 -4.8866,-5.15296 -10.8591,-9.88722 -13.4114,-10.63086 -41.33707,-36.90199 -52.57955,-49.46435 -22.65518,-25.31492 -39.46996,-49.9332 -72.70413,-106.44511 -17.79258,-30.2548 -24.16602,-40.67716 -36.07528,-58.99324 -3.79308,-5.83363 -13.12083,-20.60711 -20.72834,-32.82996 -7.60752,-12.22284 -18.35309,-29.26917 -23.87906,-37.88072 -5.52597,-8.61155 -16.16182,-25.55588 -23.63525,-37.65406 -8.94479,-14.4801 -14.09754,-21.89858 -15.07911,-21.70954 -0.87084,0.1677 -1.76818,1.96428 -2.15723,4.31902 -0.67911,4.11027 -1.68329,98.94578 -2.15518,203.537 l -0.26205,58.08378 2.52538,4.96229 c 4.36232,8.57183 10.25934,14.19385 18.44943,17.58912 4.02021,1.66659 9.49454,3.35285 12.1652,3.74722 6.12216,0.90407 8.28212,3.69498 7.48117,9.66652 -0.30266,2.2565 -0.8533,4.40611 -1.22363,4.77691 -0.37033,0.3708 -23.4779,0.79189 -51.35017,0.93576 -39.66293,0.20472 -51.2257,-0.0201 -53.20222,-1.03424 -2.05215,-1.05298 -2.5821,-2.16659 -2.82807,-5.94262 -0.33863,-5.19865 -1.05246,-4.60729 10.30131,-8.53391 15.89895,-5.49856 24.38659,-14.61002 27.80056,-29.84384 2.56727,-11.45568 3.0395,-29.70196 3.69725,-142.85883 0.65682,-112.99741 0.59289,-120.495477 -1.05707,-123.972488 -4.06816,-8.57302 -14.35469,-14.19178 -28.55688,-15.59849 l -7.84187,-0.776729 -0.29739,-4.04061 c -0.60653,-8.240926 -3.78123,-7.735 51.72345,-8.24277 42.14339,-0.385539 49.60242,-0.236271 51.53705,1.031344 1.2441,0.815169 10.83284,15.49914 21.3083,32.631043 10.47545,17.13191 25.92894,42.28586 34.34106,55.89766 8.41213,13.61181 23.86123,39.06765 34.33133,56.56855 10.47011,17.50089 21.65599,35.73752 24.85753,40.52583 3.20154,4.78833 9.62219,15.01612 14.26812,22.72843 15.47485,25.68853 24.18396,39.07251 25.73473,39.54861 0.67398,0.20691 1.47877,-0.67887 1.78841,-1.9684 0.96566,-4.02154 2.18257,-193.96443 1.28026,-199.82942 -2.06154,-13.39994 -9.27927,-22.410287 -23.78925,-29.697638 -4.96985,-2.496008 -9.32145,-5.281831 -9.67022,-6.19072 -1.19551,-3.115443 -0.63323,-7.325511 1.29672,-9.70914 l 1.93085,-2.384752 h 47.15057 47.15057 l 1.9751,2.438845 c 1.4597,1.802361 1.8014,3.25231 1.3096,5.555839 -0.9774,4.577215 -2.0084,5.407553 -8.3386,6.715132 -11.4229,2.359556 -23.1834,10.860998 -27.4966,19.876814 -2.0683,4.32332 -2.3786,6.95295 -3.07084,26.02252 -0.42352,11.66726 -0.79471,39.16867 -0.82486,61.11423 -0.0302,21.94557 -0.36277,69.9076 -0.73915,106.58229 -0.55007,53.59979 -0.42554,67.46539 0.6348,70.67825 0.72552,2.19834 3.43275,6.28442 6.01605,9.08018 2.5833,2.79575 8.5153,9.57485 13.1821,15.06467 16.707,19.6532 55.8387,52.02926 75.1882,62.20766 l 5.8309,3.06722 h 136.8233 c 155.401,0 138.656,1.06207 149.751,-9.4981 10.956,-10.42761 34.7716,-40.12157 33.271,-41.48285 -0.1854,-0.16821 -5.5647,-2.91668 -11.9539,-6.10773 -6.3892,-3.19104 -13.444,-7.0567 -15.6775,-8.59036 -9.4275,-6.47399 -31.8077,-25.84787 -38.2133,-33.08031 -14.2952,-16.14033 -28.0598,-40.05844 -34.4773,-59.90948 -11.2302,-34.73883 -10.9819,-81.6609 0.6198,-117.10281 5.831,-17.81314 22.5526,-45.03384 37.7438,-61.44212 7.4004,-7.99331 24.4795,-22.789468 32.9291,-28.527462 9.2657,-6.292208 34.7856,-17.834348 46.177,-20.884958 8.6622,-2.319744 11.7081,-2.621848 26.4568,-2.624115 35.7849,-0.0055 62.0666,9.147498 89.9074,31.311769 13.2746,10.568016 23.9309,22.193116 33.2974,36.324616 21.6691,32.6927 29.1319,55.60666 30.0642,92.30929 1.1214,44.15037 -10.4654,84.7799 -34.5705,121.22258 -29.7937,45.04289 -76.6736,69.84335 -122.2968,64.69767 -6.0769,-0.68539 -13.0945,-1.44726 -15.5946,-1.69303 l -4.5457,-0.44686 -6.5402,8.87254 c -25.3745,34.42296 -25.9061,35.59528 -16.6933,36.81576 16.178,2.14324 129.2415,-0.29533 151.5229,-3.26805 19.6179,-2.61739 59.092,-11.6373 74.7513,-17.08085 20.0824,-6.98117 53.5459,-25.24068 74.0589,-40.41053 10.9521,-8.09933 34.1261,-31.1193 42.5002,-42.21761 34.2247,-45.35822 47.3359,-98.84901 36.4882,-148.86368 -9.0958,-41.93671 -39.5484,-92.39746 -71.1623,-117.917302 -31.388,-25.337656 -69.1211,-43.084192 -110.6744,-52.052191 -30.2949,-6.538196 -54.2503,-8.6007 -107.0762,-9.218976 -45.1429,-0.528354 -905.04538,-2.02231 -943.98752,-1.640041 -86.49356,0.84905 -135.33414,11.948517 -186.39857,42.360771 -22.07075,13.144597 -35.76628,23.964562 -53.51536,42.279079 -23.35615,24.10019 -39.43785,49.906 -49.106,78.79887 -5.16311,15.42972 -7.41641,28.03806 -8.09899,45.31768 -1.52007,38.48099 9.52781,75.79982 32.61633,110.17529 14.79157,22.02253 24.01752,33.08587 34.18781,40.99649 2.77792,2.1607 7.75563,6.19197 11.06157,8.95836 3.30594,2.7664 6.85569,5.02981 7.88832,5.02981 3.40088,0 32.31695,-23.43833 43.78601,-35.49138 8.38587,-8.81285 30.29752,-35.46466 44.31951,-53.90712 44.96105,-59.13521 97.63692,-125.12391 113.89043,-142.67409 4.29201,-4.63441 14.24885,-15.68074 22.12631,-24.5474 7.87746,-8.86666 14.621,-16.1212 14.98564,-16.1212 0.36465,0 6.9589,-7.0718 14.65389,-15.71511 27.53292,-30.925999 38.54773,-39.202801 54.14498,-40.685885 8.1408,-0.774078 14.52284,-0.118592 16.31735,1.675919 1.73914,1.739138 -1.73612,62.670006 -4.84977,85.029656 -0.81235,5.83363 -2.38685,23.5618 -3.49889,39.39594 -1.11204,15.83415 -3.1377,42.19913 -4.50148,58.58885 -4.48213,53.8661 -6.50962,82.06838 -7.20434,100.21241 -0.82269,21.4859 -0.15657,24.11501 8.08466,31.90922 7.36509,6.96559 13.73746,9.98953 22.91528,10.8742 9.6916,0.9342 11.59775,1.70468 12.80826,5.17716 1.61928,4.64506 0.0305,7.15487 -4.98188,7.87001 -2.39352,0.34151 -33.13882,0.45634 -68.3229,0.25519 -54.12337,-0.30942 -64.11732,-0.58851 -64.92123,-1.8129 -1.34482,-2.04822 -0.0239,-11.31119 1.81864,-12.75419 0.84664,-0.66302 5.67685,-2.17687 10.73381,-3.3641 10.62706,-2.49493 11.34319,-2.82402 19.13379,-8.79258 3.71782,-2.8483 6.6977,-6.17938 8.22616,-9.19565 2.49132,-4.91637 5.72681,-22.66084 7.67497,-42.09195 0.55703,-5.55583 1.94564,-18.6358 3.08581,-29.0666 1.14017,-10.43078 1.80395,-19.81291 1.47506,-20.84914 -0.32889,-1.03625 -1.83334,-2.21201 -3.34322,-2.61279 -1.50989,-0.40079 -27.09761,-0.94536 -56.86161,-1.21016 -46.55255,-0.41414 -54.62272,-0.26987 -57.73906,1.03222 -2.62569,1.09708 -5.51871,4.10995 -10.51208,10.94763 -3.78917,5.18868 -17.06254,23.07102 -29.49639,39.73854 -20.59402,27.60621 -24.15756,31.83365 -40.02111,47.47717 -9.57777,9.44493 -22.00354,20.80914 -27.61284,25.25381 -5.6093,4.44467 -10.22418,8.62646 -10.25529,9.29287 -0.13679,2.92977 21.5303,15.76123 39.35631,23.30721 26.69061,11.29849 67.94481,20.7857 96.95771,22.29735 7.50039,0.39079 127.84744,0.76695 267.43789,0.8359 204.20908,0.10091 253.80083,-0.12463 253.80083,-1.15411 z m 449.5179,-71.84613 c 18.3791,-4.73606 33.5687,-13.556 47.5173,-27.5912 50.1163,-50.42771 56.7745,-157.05625 13.8184,-221.30168 -7.0224,-10.50286 -20.6516,-23.76061 -30.9122,-30.06982 -27.2635,-16.764134 -60.6591,-18.770316 -88.7693,-5.332654 -21.5173,10.285984 -35.7829,25.468274 -47.6142,50.673844 -32.6549,69.56827 -22.5762,159.76126 23.0051,205.86972 12.23,12.37144 26.9242,22.25257 33.1332,22.2804 3.1765,0.0142 5.04,-9.12834 3.4621,-16.98509 -1.6958,-8.44437 -5.2503,-13.53013 -14.2384,-20.37218 -11.317,-8.61492 -13.5188,-11.79364 -13.923,-20.10008 -0.2886,-5.93206 0.018,-7.26433 2.747,-11.93476 8.6128,-14.74009 30.4176,-14.67679 41.6016,0.12076 6.1304,8.11119 7.4518,13.81357 7.3931,31.90558 -0.043,13.52703 -0.4217,17.14585 -2.7779,26.59736 -3.204,12.85299 -3.3235,14.98297 -0.9593,17.09561 3.6944,3.30138 11.3416,3.05458 26.5165,-0.85581 z M 613.9387,253.44179 c 0.82381,-0.91439 1.76409,-2.79894 2.0895,-4.1879 1.34727,-5.75051 13.77845,-115.92463 13.50268,-119.67048 -0.25045,-3.40188 -0.69157,-4.12865 -2.67646,-4.40959 -1.85323,-0.26231 -4.19867,1.51732 -10.65053,8.08122 -16.55283,16.84029 -56.14153,59.19851 -65.38147,69.9554 -30.11503,35.05909 -38.40726,45.65087 -38.02419,48.56884 0.38398,2.92488 4.71828,3.17921 55.50977,3.25723 39.7407,0.061 44.28192,-0.0977 45.6307,-1.59472 z"
         id="path4090"
         inkscape:connector-curvature="0"
         transform="rotate(0.29999811,-48374.955,5911.2105)" />
    </g>
  </g>
</svg>
